<svg width="116" height="22" viewBox="0 0 116 22" fill="none" xmlns="http://www.w3.org/2000/svg">
<mask id="mask0_7212_332" style="mask-type:alpha" maskUnits="userSpaceOnUse" x="0" y="0" width="116" height="22">
<path d="M115.021 9.85255V8.05845H112.509V5.26931L112.425 5.2924L110.065 5.93267L110.019 5.9452V8.05855H106.295V6.88123C106.295 6.33304 106.433 5.91353 106.705 5.63375C106.976 5.35734 107.363 5.21681 107.856 5.21681C108.211 5.21681 108.578 5.29092 108.948 5.43707L109.041 5.47378V3.58435L108.997 3.57014C108.652 3.46021 108.183 3.40485 107.602 3.40485C106.869 3.40485 106.203 3.54626 105.623 3.82653C105.042 4.10719 104.585 4.50785 104.265 5.01727C103.946 5.52609 103.784 6.11376 103.784 6.76409V8.05845H102.035V9.85255H103.784V17.4108H106.295V9.85255H110.019V14.6557C110.019 16.6338 111.071 17.6363 113.146 17.6363C113.487 17.6363 113.845 17.6008 114.212 17.5314C114.585 17.4602 114.839 17.389 114.988 17.3131L115.021 17.2957V15.485L114.919 15.5449C114.783 15.6254 114.613 15.6913 114.414 15.7402C114.214 15.79 114.048 15.815 113.918 15.815C113.432 15.815 113.073 15.6989 112.85 15.4696C112.624 15.2383 112.509 14.8338 112.509 14.2679V9.85255H115.021ZM96.4274 15.8153C95.516 15.8153 94.7975 15.5473 94.2911 15.0193C93.7816 14.4887 93.5235 13.7322 93.5235 12.771C93.5235 11.7793 93.7816 11.0031 94.2913 10.4631C94.798 9.92666 95.5097 9.65439 96.4069 9.65439C97.2776 9.65439 97.9707 9.91442 98.4671 10.4277C98.9661 10.9436 99.2193 11.7136 99.2193 12.7168C99.2193 13.7324 98.9812 14.5125 98.5116 15.0343C98.0453 15.5522 97.3441 15.8153 96.4274 15.8153ZM96.539 7.83315C94.8002 7.83315 93.4192 8.28503 92.4345 9.17626C91.4505 10.0676 90.9515 11.3011 90.9515 12.8427C90.9515 14.307 91.4385 15.4848 92.3992 16.3429C93.3599 17.2012 94.6673 17.6361 96.2848 17.6361C97.9702 17.6361 99.3238 17.1779 100.308 16.2743C101.292 15.3717 101.791 14.1499 101.791 12.6443C101.791 11.1571 101.323 9.97048 100.4 9.11813C99.4761 8.26539 98.177 7.83315 96.539 7.83315ZM86.9031 7.83315C85.7203 7.83315 84.742 8.10148 83.9946 8.63053C83.2427 9.16274 82.8612 9.86074 82.8612 10.7054C82.8612 11.1444 82.9436 11.5344 83.1056 11.8652C83.2686 12.1971 83.5208 12.4893 83.856 12.7346C84.1885 12.9778 84.7019 13.2326 85.3822 13.4919C85.9541 13.7006 86.3806 13.8771 86.6515 14.0163C86.9164 14.1527 87.1043 14.2897 87.2104 14.4233C87.3136 14.5539 87.3659 14.7327 87.3659 14.9534C87.3659 15.5817 86.8353 15.8875 85.7437 15.8875C85.3388 15.8875 84.8769 15.8125 84.371 15.6646C83.8687 15.519 83.3946 15.3058 82.9653 15.0324L82.861 14.9661V17.1103L82.8993 17.1261C83.2546 17.2715 83.7025 17.3942 84.2305 17.4907C84.7574 17.5873 85.2362 17.6365 85.6521 17.6365C86.9356 17.6365 87.9692 17.3668 88.7233 16.8346C89.4823 16.2988 89.8669 15.5843 89.8669 14.7104C89.8669 14.08 89.6598 13.5394 89.2517 13.1034C88.8464 12.671 88.1428 12.274 87.1616 11.9231C86.3798 11.6448 85.879 11.4138 85.6724 11.2364C85.4732 11.0651 85.3721 10.8228 85.3721 10.516C85.3721 10.244 85.4969 10.0261 85.7532 9.84969C86.0114 9.67235 86.3709 9.58215 86.8218 9.58215C87.2401 9.58215 87.6682 9.64077 88.0939 9.75564C88.5192 9.87051 88.8929 10.0244 89.2048 10.2126L89.3074 10.2747V8.24082L89.268 8.22582C88.9802 8.11638 88.6008 8.02273 88.1399 7.94674C87.6812 7.87124 87.2651 7.83315 86.9031 7.83315ZM76.3153 15.8153C75.4042 15.8153 74.6854 15.5473 74.1791 15.0193C73.6695 14.4887 73.4118 13.7324 73.4118 12.771C73.4118 11.7793 73.6699 11.0031 74.1797 10.4631C74.6859 9.92666 75.3975 9.65439 76.2952 9.65439C77.1655 9.65439 77.8586 9.91442 78.3552 10.4277C78.8542 10.9436 79.1073 11.7136 79.1073 12.7168C79.1073 13.7324 78.8691 14.5125 78.3996 15.0343C77.9333 15.5522 77.2324 15.8153 76.3153 15.8153ZM76.4273 7.83315C74.6881 7.83315 73.3069 8.28503 72.3228 9.17626C71.3387 10.0676 70.8395 11.3011 70.8395 12.8427C70.8395 14.3076 71.3268 15.4848 72.2875 16.3429C73.2482 17.2012 74.5554 17.6361 76.1729 17.6361C77.8581 17.6361 79.212 17.1779 80.1963 16.2743C81.1802 15.3717 81.679 14.1499 81.679 12.6443C81.679 11.1571 81.2111 9.97048 80.2877 9.11813C79.3638 8.26539 78.0649 7.83315 76.4273 7.83315ZM67.0279 9.67807V8.05845H64.5476V17.4106H67.0279V12.6266C67.0279 11.8131 67.2359 11.1448 67.6462 10.6401C68.0514 10.1413 68.5912 9.88857 69.2504 9.88857C69.4738 9.88857 69.7246 9.92123 69.9962 9.98587C70.265 10.0501 70.4597 10.1199 70.5745 10.1933L70.6788 10.2603V8.04246L70.6386 8.02717C70.4076 7.94013 70.0808 7.89621 69.6674 7.89621C69.0441 7.89621 68.4863 8.07385 68.0085 8.42359C67.5891 8.73099 67.2861 9.15248 67.0543 9.67807H67.0279ZM60.1057 7.83315C58.9678 7.83315 57.9528 8.04957 57.0895 8.47619C56.2244 8.90379 55.5554 9.51426 55.1002 10.2905C54.647 11.0649 54.4169 11.9694 54.4169 12.9782C54.4169 13.8618 54.64 14.6727 55.0809 15.3874C55.5221 16.1033 56.1465 16.6633 56.9369 17.0517C57.7263 17.4397 58.6385 17.6364 59.6486 17.6364C60.8274 17.6364 61.8338 17.4273 62.6407 17.0151L62.6733 16.9985V14.9831L62.569 15.0506C62.2035 15.2868 61.7951 15.4752 61.3556 15.611C60.9172 15.7467 60.5175 15.8153 60.167 15.8153C59.1938 15.8153 58.4125 15.5452 57.8453 15.0127C57.277 14.4795 56.9888 13.7308 56.9888 12.7886C56.9888 11.8406 57.2893 11.0726 57.8816 10.5059C58.4721 9.94097 59.2548 9.65439 60.208 9.65439C61.0232 9.65439 61.8176 9.89923 62.5693 10.3828L62.6733 10.4498V8.32618L62.6397 8.30941C62.3568 8.16898 61.9711 8.05302 61.4922 7.96509C61.0153 7.87736 60.5489 7.83315 60.1057 7.83315ZM52.7086 8.05855H50.2283V17.4106H52.7086V8.05855ZM51.4938 4.07452C51.0856 4.07452 50.7295 4.19778 50.437 4.44203C50.1432 4.68697 49.9943 4.99536 49.9943 5.35931C49.9943 5.71754 50.1415 6.0203 50.4324 6.25873C50.7215 6.49646 51.0787 6.61695 51.4939 6.61695C51.909 6.61695 52.2675 6.49646 52.5601 6.25912C52.8545 6.0203 53.0038 5.71763 53.0038 5.35931C53.0038 5.00809 52.8585 4.70285 52.5722 4.4519C52.2861 4.20143 51.9232 4.07452 51.4938 4.07452ZM45.3052 7.36854V17.4106H47.8365V4.36081H44.333L39.8799 14.0538L35.5584 4.36081H31.9124V17.4105H34.2911V7.36755H34.3728L38.9362 17.4106H40.7313L45.2235 7.36854H45.3052Z" fill="#434343"/>
<path d="M11.6683 10.3489H0V0H11.6683V10.3489Z" fill="#434343"/>
<path d="M24.5514 10.3489H12.8833V0H24.5514V10.3489Z" fill="#434343"/>
<path d="M11.668 21.7794H0V11.4305H11.668V21.7794Z" fill="#434343"/>
<path d="M24.5514 21.7794H12.8833V11.4305H24.5514V21.7794Z" fill="#434343"/>
</mask>
<g mask="url(#mask0_7212_332)">
<rect x="-19.4534" y="-4.24536" width="137" height="31" fill="#434343"/>
</g>
</svg>
