<svg width="22" height="23" viewBox="0 0 22 23" fill="none" xmlns="http://www.w3.org/2000/svg">
<path fill-rule="evenodd" clip-rule="evenodd" d="M16.5849 16.4833C13.2761 19.7719 7.87744 19.7678 4.52662 16.4375C1.17579 13.1072 1.17171 7.74158 4.4805 4.45304C7.78929 1.1645 13.1879 1.16856 16.5388 4.49888C19.8896 7.82919 19.8937 13.1948 16.5849 16.4833ZM17.1329 18.6678C13.0077 21.9469 6.95346 21.6692 3.10807 17.8473C-1.01791 13.7466 -1.03855 7.11858 3.06195 3.04318C7.16246 -1.03222 13.8313 -1.0117 17.9573 3.08901C21.8822 6.98991 22.0922 13.1779 18.5735 17.2799L22.0096 20.6949L20.591 22.1048L17.1329 18.6678Z" fill="black"/>
</svg>
