<svg width="60" height="19" viewBox="0 0 60 19" fill="none" xmlns="http://www.w3.org/2000/svg">
<path d="M13.1036 4.56772C11.2756 4.10182 8.2397 7.21362 6.96044 9.74622C6.17149 11.3084 5.82553 13.2718 7.23015 13.7826C8.63477 14.2934 11.0179 11.7325 11.5784 10.9878C12.1389 10.2429 13.0563 8.75084 13.0563 8.75084C13.0563 8.75084 13.3377 8.69659 13.5222 8.6538C13.7066 8.61101 14.0046 8.52603 14.0046 8.52603C14.0046 8.52603 13.659 9.142 13.3471 9.77334C12.9773 10.5219 11.9726 13.0138 13.9124 13.7612C15.7658 14.4751 18.4041 11.498 18.5428 11.4416C18.5428 11.4416 17.7574 13.4704 18.9773 13.7826C20.3159 14.1249 21.7829 12.4099 21.7829 12.4099C21.7829 12.4099 21.474 13.6973 22.517 13.8181C24.3848 14.0342 27.6886 9.25681 27.6886 9.25681H27.0286C27.0286 9.25681 25.3474 11.4202 24.5388 11.8672C23.7303 12.3141 24.0211 11.52 24.2408 11.165C24.521 10.7133 28.0927 4.74522 28.0927 4.74522H26.1987L25.979 5.09268C25.979 5.09268 25.5888 4.4969 24.9363 4.53939C23.0381 4.66325 20.7794 7.68886 19.7861 9.02236C18.7932 10.3562 16.6508 12.9026 15.5229 12.4488C14.2936 11.9539 15.5159 9.68233 16.3245 8.34853C17.2047 6.89659 18.7649 5.45852 19.3817 5.44737C20.1408 5.43321 19.8428 6.12121 19.8428 6.12121C19.8428 6.12121 19.2753 6.05039 18.864 6.56812C18.5729 6.93426 18.3318 7.46887 18.6084 7.75968C19.0554 8.22949 19.6373 7.75245 19.9847 7.22025C21.0681 5.56189 20.2755 4.68796 19.4245 4.56048C17.6116 4.28836 15.9414 6.61754 14.6718 7.48303C13.791 8.08303 13.423 8.03632 13.423 8.03632C13.423 8.03632 14.9512 5.03843 13.1039 4.56742L13.1036 4.56772ZM21.311 9.93065C21.8592 8.92834 22.6059 7.96068 23.5778 6.74773C24.5497 5.53477 25.0334 5.43653 25.326 5.44979C25.5722 5.46063 25.6071 5.7192 25.6071 5.7192C25.6071 5.7192 23.4955 9.39845 22.7295 10.4484C22.4794 10.7913 22.2654 11.0818 22.0768 11.2997C21.6735 11.7653 21.3806 11.9904 21.1546 12.0465C21.0365 12.0754 20.89 12.0682 20.7927 12.0091C20.4485 11.7997 20.711 11.0267 21.3107 9.93065H21.311ZM12.3493 8.73667C12.3231 8.79574 11.7201 9.79293 11.2132 10.4414C10.6671 11.1403 9.65788 12.1962 9.05667 11.9738C8.11674 11.6261 9.11935 9.59252 9.7956 8.59956C10.4718 7.60629 10.571 7.47851 10.5903 7.4529C10.6093 7.42668 10.6279 7.40287 10.6445 7.43391C10.6611 7.46465 10.8763 7.90704 11.3422 8.20478C11.8081 8.50282 12.2857 8.63994 12.3188 8.65169C12.352 8.66344 12.3758 8.67791 12.3496 8.73667H12.3493ZM13.1355 7.18439C12.9607 7.64215 12.8046 7.93055 12.7724 7.99865C12.7206 8.10774 12.5907 8.07279 12.5907 8.07279C12.4427 8.06616 11.2924 7.80368 11.2991 6.88183C11.3054 5.98349 12.572 5.10353 13.0683 5.47962C13.5318 5.8304 13.3103 6.72723 13.1355 7.18439ZM54.9502 17.2717C54.8396 17.209 54.7166 17.178 54.5813 17.178C54.446 17.178 54.323 17.2093 54.2124 17.2717C54.1018 17.3344 54.015 17.4193 53.9515 17.5275C53.8882 17.6354 53.8562 17.7529 53.8562 17.8795C53.8562 18.0061 53.8879 18.1257 53.9515 18.233C54.0147 18.34 54.1018 18.425 54.2124 18.4873C54.323 18.55 54.446 18.5811 54.5813 18.5811C54.7166 18.5811 54.8396 18.5497 54.9502 18.4873C55.0608 18.425 55.1475 18.34 55.2111 18.233C55.2744 18.126 55.3064 18.0082 55.3064 17.8795C55.3064 17.7508 55.2747 17.6354 55.2111 17.5275C55.1478 17.4196 55.0608 17.3344 54.9502 17.2717ZM55.08 18.17C55.0321 18.2556 54.9646 18.3228 54.8781 18.3719C54.7916 18.4207 54.6925 18.4452 54.5813 18.4452C54.4701 18.4452 54.3709 18.4207 54.2845 18.3719C54.198 18.3231 54.1308 18.2559 54.0826 18.17C54.0346 18.0844 54.0105 17.9874 54.0105 17.8795C54.0105 17.7716 54.0346 17.6773 54.0826 17.5917C54.1305 17.5061 54.1983 17.4389 54.2857 17.3898C54.3731 17.3407 54.4716 17.3166 54.5813 17.3166C54.691 17.3166 54.7895 17.341 54.8769 17.3898C54.9643 17.4386 55.0321 17.5058 55.08 17.5917C55.128 17.6773 55.1521 17.7734 55.1521 17.8795C55.1521 17.9856 55.128 18.0844 55.08 18.17Z" fill="#F40009"/>
<path d="M56.3753 9.30633H54.4813L54.1736 9.78187C54.1736 9.78187 53.7873 9.08483 53.133 9.09598C52.012 9.11527 50.89 9.97112 49.5864 11.4556C48.6308 12.5432 47.0468 14.9646 47.0468 14.9646C47.0468 14.9646 45.8315 16.8375 45.2167 16.6908C44.1686 16.4403 46.0964 12.5622 46.0964 12.5622C46.0964 12.5622 47.1098 11.9363 48.4231 10.8312C49.25 10.1357 50.2014 9.17886 51.076 8.29197C51.8712 7.48524 52.8085 6.38981 53.6993 5.18981C53.4711 5.22597 53.2373 5.25038 52.9989 5.26213C52.2 6.31567 51.3472 7.25862 50.6218 8.00809C49.5421 9.12371 48.5488 10.0365 47.827 10.6187C47.1354 11.1762 46.6918 11.4273 46.6918 11.4273C46.6918 11.4273 48.0112 8.71778 50.2102 5.72411C52.4092 2.73075 55.4881 -0.0501669 55.2467 1.26917C55.1777 1.64797 54.9424 2.19132 54.5871 2.83622C54.8372 2.78409 55.0801 2.71899 55.3145 2.64486C55.8443 1.55124 56.0248 0.649883 55.6294 0.389511C54.016 -0.67307 49.9121 3.72371 47.8548 6.2774C45.7977 8.83109 43.9359 12.7337 43.9359 12.7337C43.9359 12.7337 43.6141 12.8687 43.2582 12.9362C43.0337 12.979 42.9378 12.9696 42.9011 12.9551C42.8827 12.9476 42.8806 12.935 42.8806 12.935C42.8806 12.935 44.6902 9.55194 42.8375 9.10322C41.0495 8.67047 37.9516 11.9782 36.8502 14.279C36.0944 15.8575 35.6679 17.8446 36.9641 18.3178C38.3678 18.8304 40.7521 16.2677 41.3126 15.523C41.8732 14.778 42.5729 13.5395 42.5729 13.5395C42.5729 13.5395 42.9152 13.5214 43.1024 13.494C43.4604 13.4412 43.6279 13.3972 43.6279 13.3972C43.6279 13.3972 43.3959 14.0051 43.1449 14.7756C42.6769 16.2125 42.2547 18.2684 43.9395 18.3651C45.013 18.4263 46.5879 16.4876 46.5879 16.4876C46.5879 16.4876 46.1642 18.2114 47.5573 18.3651C48.5859 18.4784 50.0827 16.8893 50.0827 16.8893C50.0827 16.8893 49.7566 18.2584 50.7993 18.379C51.6919 18.4823 52.9591 17.4357 53.9982 16.2842C55.1328 15.027 56.0031 13.6501 56.0031 13.6501H55.3435C55.3435 13.6501 53.8834 15.8662 52.8582 16.4593C52.0165 16.9463 52.3049 16.1661 52.5601 15.7572C52.8416 15.306 56.3744 9.30633 56.3744 9.30663L56.3753 9.30633ZM41.9449 13.4804C41.919 13.5398 41.4449 14.3646 40.9377 15.0131C40.3914 15.712 39.3912 16.7637 38.79 16.5413C37.85 16.1935 38.8843 14.1458 39.5605 13.1525C40.2368 12.1593 40.3136 12.0921 40.3326 12.0661C40.3516 12.0402 40.3706 12.0164 40.3872 12.0472C40.4037 12.0779 40.6189 12.4859 41.0438 12.84C41.4705 13.1956 41.881 13.3834 41.9141 13.3951C41.9473 13.4069 41.9711 13.421 41.9449 13.4801V13.4804ZM42.3677 12.7424C42.3083 12.8412 42.2658 12.8461 42.1426 12.8132C41.9256 12.7544 41.0266 12.3389 41.0336 11.417C41.0399 10.5187 42.3062 9.63873 42.8028 10.0148C43.2663 10.3656 43.0448 11.2624 42.87 11.7199C42.6955 12.177 42.4066 12.6776 42.3677 12.7424ZM50.972 14.9646C50.7219 15.3075 50.5127 15.6173 50.3241 15.8349C49.9209 16.3005 49.6578 16.5172 49.4233 16.5744C49.3052 16.6031 49.1587 16.5961 49.0617 16.5374C48.7175 16.3279 48.9586 15.5125 49.5577 14.4161C50.1059 13.4141 50.7393 12.4115 51.7805 11.2573C52.8259 10.0986 53.2258 10.0428 53.5184 10.0561C53.7647 10.0667 53.7996 10.3255 53.7996 10.3255C53.7996 10.3255 53.7821 10.3855 53.743 10.4533C53.3979 11.0515 51.6597 14.0216 50.9717 14.9646H50.972ZM23.0342 16.4141C21.8857 15.7044 20.4124 15.2491 18.7197 15.2343C14.3591 15.1963 9.61119 17.3149 6.39542 17.3435C2.60256 17.3766 2.41361 14.4586 2.69477 12.8563C3.2999 9.40427 5.74841 6.11105 7.3227 4.37464C8.89728 2.63823 10.5472 1.29087 11.919 0.946417C13.2907 0.601967 13.1618 1.64526 12.9939 1.7878C12.8206 1.79142 12.4882 1.82879 12.2996 1.95927C12.0043 2.16299 11.6098 2.53607 11.5851 3.12763C11.5426 4.03893 12.7203 4.19865 13.5716 2.29046C14.1523 0.988908 13.2314 0.105634 12.4665 0.0206516C11.4175 -0.0962745 9.81431 0.268366 7.9007 1.4982C4.57011 3.63843 0.115168 8.39111 0.00155633 13.6642C-0.0632352 16.6724 1.90191 18.3651 4.59814 18.3651C7.29437 18.3651 10.9549 16.714 14.5293 16.6718C16.7425 16.6528 18.1748 17.4285 18.9002 18.6918C18.9002 18.6918 19.621 17.4927 21.2264 17.4285C22.8145 17.3646 24.563 17.8097 25.9983 18.8186C25.5195 18.1267 24.1658 17.1133 23.0339 16.4141H23.0342Z" fill="#F40009"/>
<path d="M31.2515 4.7518H29.4503L28.4345 6.39901H30.2348L31.2515 4.7518ZM35.9241 9.0859C34.9805 9.16395 33.3134 10.008 32.4054 11.8523C31.4974 13.6966 31.4941 14.8352 31.4941 14.8352C31.4941 14.8352 31.973 14.3102 32.7071 13.7605C33.4412 13.2109 33.9875 13.0156 33.9875 13.0156C33.9875 13.0156 34.1238 12.3384 34.4628 11.6302C34.7925 10.9413 35.3156 10.2241 35.9629 10.0614C37.275 9.7311 36.6467 12.126 35.683 13.6876C35.1649 14.5269 33.3276 16.9389 31.7458 16.9389C30.1639 16.9389 29.8587 15.4138 30.1923 13.9878C30.5256 12.562 30.9869 10.7506 33.2947 7.45918C35.6025 4.16777 38.1005 2.21649 39.5464 1.3965C41.0314 0.554815 41.6366 0.923675 41.6366 0.923675C41.6366 0.923675 39.7407 2.09143 38.6622 3.49635C37.6309 4.83919 37.0156 6.35019 37.4941 7.09062C37.9498 7.7961 39.556 7.80936 41.3247 5.25567C43.0704 2.73482 42.6295 1.23588 42.6295 1.23588C42.6295 1.23588 42.8405 1.16717 42.9821 1.14819C43.8334 1.03488 44.5154 1.25939 45.5714 1.80092C46.6776 2.36838 47.739 3.27847 49.1934 4.02312C49.6312 3.54336 50.1185 3.03377 50.6311 2.53653C48.6705 1.58214 47.1821 0.221817 45.2592 0.09133C43.5854 -0.0219798 42.2658 0.587965 42.2658 0.587965C42.2658 0.587965 41.7553 -0.107264 40.1804 0.119657C38.6055 0.34688 33.7534 2.37561 29.6251 8.98675C25.8925 14.9641 27.6512 18.3897 30.3342 18.3505C33.2426 18.3077 36.0093 15.0732 36.9457 12.4059C37.882 9.73864 36.7754 9.01568 35.9241 9.0859ZM41.6335 3.53161C41.1447 4.72317 40.4251 5.55582 39.7169 6.19168C38.8086 7.00745 38.3102 6.98002 38.0944 6.81609C37.5309 6.38696 38.287 4.76868 39.5994 3.32156C40.9064 1.88018 42.0316 1.43176 42.0316 1.43176C42.0316 1.44864 42.2188 2.10288 41.6335 3.53161ZM57.8293 1.79399C56.4985 2.65014 54.6533 3.42553 52.8823 3.25466C52.4344 3.71966 51.9541 4.25547 51.4722 4.8416C54.546 5.44793 57.2347 3.54366 58.6662 1.92116C59.5591 0.909511 60 0.00634766 60 0.00634766C60 0.00634766 59.1474 0.945975 57.8293 1.79399Z" fill="#F40009"/>
</svg>
